<svg id="Layer_1" data-name="Layer 1" xmlns="http://www.w3.org/2000/svg" viewBox="0 0 403.77 95.89"><defs><style>.cls-1{fill:#50ca94;}.cls-2{fill:#21242a;}</style></defs><title>logo-light</title><path class="cls-1" d="M277,306.24c-.34.27-.5.33-.52.42-1.3,7.3-1.3,7.3-8.95,7.34a73.33,73.33,0,0,0-7.56.08c-3.2.36-4-.86-4-4,.1-25.47,0-50.94,0-76.41,0-3.45.09-6.9,0-10.35-.08-2.1.74-2.79,2.78-2.75,4.9.11,9.82.18,14.72,0,2.59-.09,3.08,1,3.08,3.3,0,8.09.18,16.18.32,24.26,0,.88-.29,1.86.61,2.68a3.18,3.18,0,0,0,1-.4c14.26-14.51,36-11.53,44.9,7.07,7.69,16.11,7.42,32.54-2.82,48-9.13,13.82-34.64,13.33-42.21,1.86A6.84,6.84,0,0,0,277,306.24Zm.09-26.91c0,3.71-.07,7.45,1.23,11,2,5.55,5.84,9.18,11.89,9.68,5.75.48,10.71-1.65,13.29-6.87,4.74-9.6,4.78-19.57-.46-28.94-4.78-8.57-16.59-8.76-22.31-.83-3.44,4.81-3.51,10.38-3.62,16Z" transform="translate(-49.12 -220.25)"/><path class="cls-1" d="M223.78,305.37c-5.91,8.72-14.26,11.27-23.81,10.35-11.66-1.13-18.92-7.8-20.29-19.42-2-16.91-.48-34-.89-50.92,0-1.78.86-2.27,2.46-2.25,5.44.05,10.89.11,16.33,0,2.78,0,2.43,1.82,2.43,3.51v36.25a50,50,0,0,0,.55,7.92c.88,5.34,3.4,7.73,8.53,8.53a11.33,11.33,0,0,0,11.72-5.72,19.46,19.46,0,0,0,1.89-9.26c0-12.48.14-25,0-37.44,0-2.93.78-4,3.82-3.87,4.64.25,9.3.2,13.94.07,2.33-.06,3.33.59,3.32,3.09q-.06,32.46.07,64.92c0,2.38-1,2.9-3.1,2.84-4.11-.12-8.24-.25-12.34,0-3,.21-4-.8-3.74-3.76A6.31,6.31,0,0,0,223.78,305.37Z" transform="translate(-49.12 -220.25)"/><path class="cls-1" d="M114.7,291a35.62,35.62,0,0,0,3.58,0c3.91-.41,7.18-.24,8.16,4.8.5,2.62,3.2,3.77,5.67,4.53a21.7,21.7,0,0,0,12.19.11c2.86-.77,5.19-2.42,5.35-5.65s-1.86-4.78-4.58-5.79c-5.39-2-11.1-2.52-16.65-3.81a73.52,73.52,0,0,1-10.25-3.15c-6.68-2.62-11.22-7-12.1-14.42-1-8.43,1.34-15.67,8.72-20.4,10.54-6.76,22.19-6.66,33.86-4.2,9.37,2,16.33,7.37,19.88,16.58a17.76,17.76,0,0,1,.72,2.28c1,4.33.66,4.8-3.79,4.83h-8c-4.42.1-8.36.77-10.22-5.45-1.62-5.42-13.56-7-17.88-3.2a6.79,6.79,0,0,0,1.37,11.07c4.43,2.36,9.42,2.63,14.23,3.53,5.23,1,10.38,2.12,15.22,4.45,6.47,3.11,10.63,7.82,11,15.28.38,8.05-2.83,14.73-9.88,18.18-15.17,7.44-30.83,7.35-46-.14-6.51-3.21-10.09-9.16-11-16.56-.26-2.1.25-3,2.42-2.93,2.65.08,5.31,0,8,0Z" transform="translate(-49.12 -220.25)"/><path class="cls-1" d="M92.33,267.44c0,14.21-.07,28.42.06,42.62,0,3.06-.84,4.21-4,4a89.91,89.91,0,0,0-13.13,0c-3.74.32-4.34-1.18-4.31-4.5.16-17,0-34,.18-51,0-3.78-.9-5.19-4.81-4.9-4.62.35-9.29,0-13.93.18-2.38.07-3.38-.73-3.26-3.21.16-3,.14-6.11,0-9.15-.12-2.47.93-3.25,3.3-3.2a49.41,49.41,0,0,0,10.31-.48c7.78-1.48,12-5.76,12.51-13.66.18-2.72,1-3.91,3.72-3.5a17.33,17.33,0,0,0,2.39,0c3.51.32,8-1.55,10.3.85,2.08,2.19.68,6.6.7,10,.07,12,0,23.9,0,35.84Z" transform="translate(-49.12 -220.25)"/><path class="cls-2" d="M387.21,278.32c.4-8.53,1.93-16.61,7.3-23.58,8.09-10.51,19.18-12.61,31.39-11,11.64,1.55,19.73,8,23.87,19.06,4.45,11.85,4.21,23.85-1.14,35.25-6.17,13.17-19.48,19.15-35.07,16.7-13.42-2.1-23.14-12.35-25.43-27C387.64,284.68,387.51,281.48,387.21,278.32Zm53.63.66a36.93,36.93,0,0,0-.84-8.71c-1.88-9-8.22-15.56-16-16.76-9-1.39-17.25,2-21,9.53-5.16,10.29-5.48,21-.5,31.45,3.39,7.13,9.47,10.52,17.38,10.45s13.83-3.07,17.6-10.17c2.63-5,3.23-10.32,3.36-15.79Z" transform="translate(-49.12 -220.25)"/><path class="cls-2" d="M364.25,279.26c0-10.47.09-20.94-.07-31.41,0-2.82.87-3.55,3.6-3.52,8,.07,8.1-.05,8.12,7.82.07,19.08-.06,38.16.07,57.24,0,3.52-.91,4.77-4.62,4.62-7.21-.28-7.17-.05-7.13-7.31V279.26Z" transform="translate(-49.12 -220.25)"/><path class="cls-2" d="M335.65,306.7c0-7.75,0-7.75,7.63-7.84,7.23-.08,7.23-.08,7.26,7.3,0,7.8,0,7.8-7.87,7.81C335.69,314,335.69,314,335.65,306.7Z" transform="translate(-49.12 -220.25)"/><path class="cls-2" d="M364.22,227c-.09-6.19-.09-6.19,6.1-6.22,5.57,0,5.57,0,5.59,5.56,0,7.4,0,7.4-7.05,7.38C364.31,233.69,364.31,233.69,364.22,227Z" transform="translate(-49.12 -220.25)"/></svg>